<?xml version="1.0" standalone="no"?><!DOCTYPE svg PUBLIC "-//W3C//DTD SVG 1.1//EN" "http://www.w3.org/Graphics/SVG/1.1/DTD/svg11.dtd"><svg t="1610343083400" class="icon" viewBox="0 0 1024 1024" version="1.1" xmlns="http://www.w3.org/2000/svg" p-id="5774" xmlns:xlink="http://www.w3.org/1999/xlink" width="200" height="200"><defs><style type="text/css"></style></defs><path d="M130.976744 1023.261767c-24.909395 0.095256-48.818605-8.811163-66.512372-24.766511C46.770605 982.468465 36.768744 960.75014 36.649674 938.031628v-447.226047h74.394791v394.430512c0 37.673674 33.768186 68.226977 75.537861 68.226977h639.666604c41.722047 0 75.561674-30.553302 75.561675-68.226977V139.002047c-0.11907-18.19386-8.120558-35.578047-22.289861-48.389954a79.062326 79.062326 0 0 0-53.271814-19.837023H451.70307V1.000186h433.890232c51.842977-0.23814 94.065116 37.911814 94.350884 85.182512v851.872744c-0.11907 22.718512-10.12093 44.460651-27.814698 60.439814-17.693767 15.955349-41.626791 24.885581-66.512372 24.766511z m80.157768-605.826976c-6.596465-0.381023-13.43107-5.12-20.670512-14.240744a1112.778419 1112.778419 0 0 1-27.171721-35.29228l-31.434419-42.079255a11565.246512 11565.246512 0 0 1-31.124837-41.841117 1154.619535 1154.619535 0 0 0-26.314418-34.387348c-7.168-9.073116-9.239814-16.50307-6.26307-22.266047 3.000558-5.715349 9.882791-8.573023 20.622884-8.573023 6.763163 0 14.45507-0.214326 23.051907-0.619163 8.573023-0.381023 15.836279-0.619163 21.813581-0.619163 8.382512 0.381023 13.788279-2.83386 16.193488-9.763721 2.381395-6.906047 3.572093-16.26493 3.572093-28.171907v-27.862325c-0.023814-29.672186 0.166698-59.344372 0.571535-89.016558V39.531163c0-13.43107 2.333767-23.194791 6.906047-29.338791 4.548465-6.120186 13.43107-9.192186 26.647814-9.192186 9.525581 0 17.860465 0.11907 24.814139 0.309581 7.668093 0.214326 15.36 0.309581 23.028093 0.285768 5.929674-0.23814 11.811721 0.952558 17.026977 3.572093 3.97693 2.143256 7.28707 5.23907 9.573209 8.882605 2.238512 3.667349 3.667349 7.691907 4.21507 11.859348 0.571535 4.143628 0.881116 8.287256 0.90493 12.454698v29.648372c-0.428651 31.434419-0.619163 62.892651-0.595349 94.350884v29.076837c-0.23814 6.334512 0.642977 12.645209 2.667163 18.693954 1.786047 4.548465 6.644093 7.025116 14.645582 7.382325 7.191814 0 16.193488 0.23814 26.933581 0.619163 10.811535 0.381023 19.527442 0.595349 26.314419 0.595349 11.192558-0.381023 17.765209 2.95293 19.765581 10.073302 2.000372 7.144186-1.428837 16.026791-10.168558 26.74307-8.001488 9.835163-17.050791 21.527814-27.219349 34.982698-10.168558 13.43107-20.48 27.171721-30.83907 41.221953-10.382884 14.002605-20.432372 27.481302-30.172279 40.317023-9.811349 12.859535-18.479628 23.861581-26.028651 32.958512-7.620465 8.692093-14.693209 12.835721-21.26586 12.40707z m265.311255-78.252651V261.715349h253.523349v77.466791H476.445767z m-192.250046 232.043162V492.948837h443.368186v78.300279H284.195721z m2.405209 226.827907v-77.085767h443.368186v77.085767H286.60093z" p-id="5775"></path></svg>