<?xml version="1.0" standalone="no"?><!DOCTYPE svg PUBLIC "-//W3C//DTD SVG 1.1//EN" "http://www.w3.org/Graphics/SVG/1.1/DTD/svg11.dtd"><svg t="1610343121304" class="icon" viewBox="0 0 1024 1024" version="1.1" xmlns="http://www.w3.org/2000/svg" p-id="5930" xmlns:xlink="http://www.w3.org/1999/xlink" width="200" height="200"><defs><style type="text/css"></style></defs><path d="M684.544 437.76c-6.656 0-13.312-2.56-17.92-7.68L514.048 276.992 360.96 430.08c-10.24 10.24-26.112 10.24-36.352 0-10.24-9.728-10.24-26.112 0-36.352l171.008-171.52c4.608-4.608 11.264-7.68 17.92-7.68 6.656 0 13.312 2.56 17.92 7.68L702.464 394.24a26.288 26.288 0 0 1 0 36.352c-4.608 4.608-11.264 7.168-17.92 7.168z" p-id="5931"></path><path d="M513.536 951.808c-6.656 0-13.312-2.56-17.92-7.68l-140.8-140.288h-320c-14.336 0-25.6-11.264-25.6-25.6V128c0-14.336 11.264-25.6 25.6-25.6h957.44c14.336 0 25.6 11.264 25.6 25.6v650.24c0 14.336-11.264 25.6-25.6 25.6h-320L531.968 944.128c-5.12 5.12-11.776 7.68-18.432 7.68zM60.416 752.64h305.152c6.656 0 13.312 2.56 17.92 7.68l130.048 130.048L643.584 760.32c4.608-4.608 11.264-7.68 17.92-7.68h305.152V153.6H60.416v599.04z" p-id="5932"></path><path d="M513.536 573.44c-14.336 0-25.6-11.264-25.6-25.6V271.36c0-14.336 11.264-25.6 25.6-25.6s25.6 11.264 25.6 25.6v276.48c0 14.336-11.264 25.6-25.6 25.6zM470.016 678.4a43.52 43.52 0 1 0 87.04 0 43.52 43.52 0 1 0-87.04 0z" p-id="5933"></path></svg>