<?xml version="1.0" standalone="no"?><!DOCTYPE svg PUBLIC "-//W3C//DTD SVG 1.1//EN" "http://www.w3.org/Graphics/SVG/1.1/DTD/svg11.dtd"><svg t="1610348136001" class="icon" viewBox="0 0 1024 1024" version="1.1" xmlns="http://www.w3.org/2000/svg" p-id="9152" xmlns:xlink="http://www.w3.org/1999/xlink" width="200" height="200"><defs><style type="text/css"></style></defs><path d="M673.3 944.7H512.7c-56.8 0-103.5-44.1-107.7-99.9l-28.6 0.3c-4.3 55.6-50.9 99.6-107.7 99.6H108.2c-59.5 0-108-48.4-108-108V188.1c0-59.6 48.4-108 108-108h160.6c59.5 0 108 48.4 108 108v545.6h28V188.1c0-59.6 48.4-108 108-108h160.6c59.5 0 108 48.4 108 108v648.6c-0.1 59.5-48.5 108-108.1 108zM512.7 147.8c-22.2 0-40.3 18-40.3 40.3v648.6c0 22.2 18.1 40.3 40.3 40.3h160.6c22.2 0 40.3-18 40.3-40.3V188.1c0-22.2-18.1-40.3-40.3-40.3H512.7z m-404.5 0c-22.2 0-40.3 18-40.3 40.3v648.6c0 22.2 18.1 40.3 40.3 40.3h160.6c22.2 0 40.3-18 40.3-40.3V188.1c0-22.2-18.1-40.3-40.3-40.3H108.2z" p-id="9153" fill="#ffffff"></path><path d="M130.9 796.5m-35.5 0a35.5 35.5 0 1 0 71 0 35.5 35.5 0 1 0-71 0Z" p-id="9154" fill="#ffffff"></path><path d="M535.4 796.5m-35.5 0a35.5 35.5 0 1 0 71 0 35.5 35.5 0 1 0-71 0Z" p-id="9155" fill="#ffffff"></path><path d="M128.3 194.4H262v65.1H128.3zM535.2 194.4h133.7v65.1H535.2zM927.2 944.7c-53.5 0-97-43.5-97-97v-671c0-53.5 43.5-97 97-97s97 43.5 97 97v670.9c0 53.5-43.6 97.1-97 97.1z m0-795.8c-15.4 0-27.9 12.5-27.9 27.9v670.9c0 15.4 12.5 27.9 27.9 27.9 15.4 0 27.9-12.5 27.9-27.9v-671c-0.1-15.3-12.6-27.8-27.9-27.8z" p-id="9156" fill="#ffffff"></path></svg>