<?xml version="1.0" standalone="no"?><!DOCTYPE svg PUBLIC "-//W3C//DTD SVG 1.1//EN" "http://www.w3.org/Graphics/SVG/1.1/DTD/svg11.dtd"><svg t="1610591154292" class="icon" viewBox="0 0 1024 1024" version="1.1" xmlns="http://www.w3.org/2000/svg" p-id="2549" xmlns:xlink="http://www.w3.org/1999/xlink" width="64" height="64"><defs><style type="text/css"></style></defs><path d="M643.669184 570.538368c-8.243193 0-13.832119 0.540142-16.758177 1.331434v52.92536c3.4576 0.791291 7.715092 1.071684 13.562048 1.071684 21.53689 0 34.847789-10.89574 34.847789-28.995673 0-16.477785-11.170972-26.332805-31.65166-26.332805z" p-id="2550" fill="#ffffff"></path><path d="M553.307136 329.842978c-22.771993-22.761672-59.67886-22.761672-82.452573 0L211.935385 588.763876c-22.771993 22.771993-22.771993 59.689182 0 82.462895L470.844241 930.128746c22.771993 22.771993 59.680581 22.771993 82.452574 0l258.920898-258.924338a58.29238 58.29238 0 0 0 0-82.454294l-258.910577-258.907136z m-135.324607 244.421341h-68.880204v40.966537h64.364682v32.971052h-64.364682v72.076334h-40.424674V541.023196h109.304878v33.241123z m154.798979 0.803333h-48.94998v145.201989h-40.414353v-145.201989h-48.397796v-34.044456h137.762129v34.044456z m126.467303 63.019487c-13.832119 12.791399-34.577718 18.889504-58.505685 18.889504-5.317135 0-10.104448-0.25975-13.832119-1.071684v64.364682h-40.152883V543.424593c12.500685-2.131326 30.058756-3.734552 54.786615-3.734551 24.99105 0 43.080661 4.795915 55.049805 14.633732 11.437602 8.783336 18.880903 23.668217 18.880903 41.228007-0.00172 17.8161-5.578605 32.700981-16.226636 42.535358z" p-id="2551" fill="#ffffff"></path><path d="M816.523371 233.621933a19.226663 19.226663 0 0 1-14.215724-7.930117c-41.611611-57.712673-109.389168-93.424002-181.556673-93.424003-5.225964 0-10.46225 0.187502-15.688214 0.552184a19.185378 19.185378 0 0 1-13.049428-3.934095C548.311679 95.278377 495.073243 77.064911 439.276871 77.064911c-99.699288 0-188.062465 58.429996-228.309958 146.628033a19.224943 19.224943 0 0 1-15.113667 11.083242C85.634942 248.55842 0.070528 342.842521 0.070528 456.73861c0 100.92579 67.235694 186.385271 159.252574 214.1338a102.002634 102.002634 0 0 1-8.533907-40.883968c0-18.382045 4.912888-35.959038 13.92673-51.415024-45.201666-22.003064-76.509286-68.267813-76.509286-121.836528 0-74.751243 60.814192-135.553393 135.563714-135.553393 3.777557 0 7.482865 0.301035 11.179573 0.614111 21.53345 1.653111 41.037065-12.313184 46.281951-33.201559 18.235829-72.638839 83.223223-123.376105 158.036393-123.376105 42.745222 0 83.20258 16.507029 113.904691 46.481494a44.076656 44.076656 0 0 0 39.767558 11.594141 137.328639 137.328639 0 0 1 27.800134-2.862411c52.331891 0 99.074856 29.411961 121.970703 76.779357 8.04537 16.653246 25.644725 26.571912 44.057734 24.677974a134.180675 134.180675 0 0 1 13.603333-0.68636c74.747803 0 135.565435 60.814192 135.565435 135.553394 0 53.572154-31.30934 99.833463-76.512727 121.836527 9.015562 15.445666 13.92673 33.022658 13.92673 51.394382a102.133369 102.133369 0 0 1-8.544228 40.913211c92.015159-27.748528 159.252574-113.20801 159.252574-214.14412 0.022363-117.921355-91.693482-214.840801-207.536836-223.1356z" p-id="2552" fill="#ffffff"></path></svg>