<?xml version="1.0" standalone="no"?><!DOCTYPE svg PUBLIC "-//W3C//DTD SVG 1.1//EN" "http://www.w3.org/Graphics/SVG/1.1/DTD/svg11.dtd"><svg t="1610343247177" class="icon" viewBox="0 0 1024 1024" version="1.1" xmlns="http://www.w3.org/2000/svg" p-id="8074" xmlns:xlink="http://www.w3.org/1999/xlink" width="200" height="200"><defs><style type="text/css"></style></defs><path d="M930.133 742.4l-153.6-81.067C797.867 622.933 806.4 576 806.4 529.067 806.4 448 772.267 371.2 716.8 320l119.467-119.467C921.6 285.867 972.8 401.067 972.8 533.333c8.533 76.8-8.533 145.067-42.667 209.067zM512 192c-34.133 0-68.267 4.267-98.133 12.8l-51.2-162.133C409.6 29.867 460.8 21.333 512 21.333c102.4 0 196.267 29.867 277.333 81.067L691.2 243.2C640 213.333 580.267 192 512 192zM217.6 580.267C238.933 704 337.067 806.4 460.8 827.733c110.933 17.067 213.333-25.6 277.333-98.133l149.334 85.333C789.333 942.933 627.2 1024 448 998.4c-200.533-25.6-362.667-183.467-396.8-384-38.4-209.067 64-396.8 226.133-486.4l85.334 149.333C260.267 332.8 196.267 448 217.6 580.267z" p-id="8075"></path></svg>